<?xml version="1.0" encoding="iso-8859-1"?>
<!-- Generator: Adobe Illustrator 19.0.0, SVG Export Plug-In . SVG Version: 6.00 Build 0)  -->
<svg version="1.1" id="Capa_1" xmlns="http://www.w3.org/2000/svg" xmlns:xlink="http://www.w3.org/1999/xlink" x="0px" y="0px"
	 viewBox="0 0 512 512" style="enable-background:new 0 0 512 512;" xml:space="preserve">
<g>
	<g>
		<path d="M256,91C114.841,91,0,205.393,0,346c0,8.284,6.716,15,15,15h91c8.284,0,15-6.716,15-15c0-73.613,59.877-135,135-135
			c30.394,0,58.47,10.099,81.059,27.113l-113.296,72.276C206.379,321.479,196,340.399,196,361c0,33.084,26.916,60,60,60
			c23.239,0,44.597-13.617,54.412-34.69l55.343-118.826C381.637,289.622,391,316.737,391,346c0,8.284,6.716,15,15,15h91
			c8.284,0,15-6.716,15-15C512,205.393,397.159,91,256,91z M91.689,331H30.514c3.386-50.957,23.882-97.327,55.815-133.457
			l42.93,42.93C108.396,265.488,94.791,296.75,91.689,331z M241,181.689c-34.25,3.102-65.512,16.707-90.527,37.571l-42.841-42.841
			c36.197-31.43,82.512-51.577,133.368-54.911V181.689z M283.217,373.644C278.307,384.188,267.623,391,256,391
			c-16.542,0-30-13.458-30-30c0-10.303,5.195-19.768,13.897-25.319l86.786-55.364L283.217,373.644z M361.527,219.26
			c-25.015-20.863-56.277-34.469-90.527-37.571v-60.185c50.855,3.334,97.165,23.49,133.362,54.921L361.527,219.26z M420.311,331
			c-3.102-34.25-16.707-65.512-37.571-90.527l42.932-42.932c31.934,36.132,52.444,82.502,55.831,133.459H420.311z"/>
	</g>
</g>
<g>
</g>
<g>
</g>
<g>
</g>
<g>
</g>
<g>
</g>
<g>
</g>
<g>
</g>
<g>
</g>
<g>
</g>
<g>
</g>
<g>
</g>
<g>
</g>
<g>
</g>
<g>
</g>
<g>
</g>
</svg>
